<svg width="123" height="155" viewBox="0 0 123 155" fill="none" xmlns="http://www.w3.org/2000/svg">
<circle cx="50.9004" cy="50" r="50" fill="#5598E6" fill-opacity="0.5"/>
<path d="M37.5368 150.182V54.1818H50.8095V65.5H51.9458C52.7337 64.0455 53.8701 62.3636 55.3549 60.4545C56.8398 58.5455 58.9004 56.8788 61.5368 55.4545C64.1731 54 67.658 53.2727 71.9913 53.2727C77.6277 53.2727 82.658 54.697 87.0822 57.5455C91.5065 60.3939 94.9762 64.5 97.4913 69.8636C100.037 75.2273 101.309 81.6818 101.309 89.2273C101.309 96.7727 100.052 103.242 97.5368 108.636C95.0216 114 91.5671 118.136 87.1731 121.045C82.7792 123.924 77.764 125.364 72.1277 125.364C67.8852 125.364 64.4155 124.652 61.7186 123.227C59.0519 121.803 56.961 120.136 55.4458 118.227C53.9307 116.318 52.764 114.621 51.9458 113.136H51.1277V150.182H37.5368ZM50.8549 89.0909C50.8549 94 51.5671 98.303 52.9913 102C54.4155 105.697 56.4761 108.591 59.1731 110.682C61.8701 112.742 65.1731 113.773 69.0822 113.773C73.1428 113.773 76.5368 112.697 79.264 110.545C81.9913 108.364 84.0519 105.409 85.4458 101.682C86.8701 97.9545 87.5822 93.7576 87.5822 89.0909C87.5822 84.4848 86.8852 80.3485 85.4913 76.6818C84.1277 73.0151 82.0671 70.1212 79.3095 68C76.5822 65.8788 73.1731 64.8182 69.0822 64.8182C65.1428 64.8182 61.8095 65.8333 59.0822 67.8636C56.3852 69.8939 54.3398 72.7273 52.9458 76.3636C51.5519 80 50.8549 84.2424 50.8549 89.0909Z" fill="white"/>
<g clip-path="url(#clip0_1_47)">
<path d="M49.609 66.9721C48.6451 66.7533 47.6353 67.0234 46.9092 67.6942L43.1442 71.1725C41.3178 72.8599 38.3493 71.7204 38.1211 69.2443L37.6506 64.139C37.5599 63.155 36.9904 62.2788 36.1281 61.7963L31.6539 59.2929C29.4826 58.0781 29.6487 54.9004 31.9347 53.9184L36.6366 51.8987C37.5442 51.5088 38.2017 50.6971 38.3947 49.7284L39.3965 44.6999C39.8824 42.2614 42.9536 41.4384 44.5936 43.3074L47.9754 47.1613C48.627 47.9037 49.6022 48.2779 50.5832 48.1617L55.665 47.5599C58.1357 47.2673 59.8684 49.9363 58.5954 52.074L55.9724 56.479C55.4668 57.3281 55.4118 58.3716 55.8252 59.2691L57.9673 63.9192C59.0083 66.1788 57.0047 68.6507 54.5785 68.1L49.609 66.9721Z" fill="#E7EC00"/>
</g>
<defs>
<clipPath id="clip0_1_47">
<rect width="44" height="44" fill="white" transform="translate(22.9004 33)"/>
</clipPath>
</defs>
</svg>
