<svg width="10" height="10" viewBox="0 0 10 10" fill="none" xmlns="http://www.w3.org/2000/svg">
    <path d="M0.651532 0.863784C0.456066 1.05926 0.456066 1.37618 0.651532 1.57165L4.08447 5.00467L0.651238 8.438C0.455772 8.63347 0.455772 8.95039 0.651239 9.14586L0.863592 9.35822C1.05906 9.55369 1.37597 9.55369 1.57144 9.35822L5.00467 5.9249L8.43784 9.35815C8.63331 9.55362 8.95022 9.55362 9.14569 9.35815L9.35804 9.14579C9.55351 8.95032 9.55351 8.6334 9.35804 8.43793L5.92487 5.00468L9.35775 1.57172C9.55321 1.37625 9.55321 1.05933 9.35775 0.863854L9.14539 0.651495C8.94993 0.456024 8.63301 0.456024 8.43755 0.651495L5.00467 4.08445L1.57173 0.651425C1.37627 0.455954 1.05935 0.455954 0.863886 0.651425L0.651532 0.863784Z" fill="#A9252B"/>
</svg>
