<svg width="512" height="512" viewBox="0 0 512 512" fill="none" xmlns="http://www.w3.org/2000/svg">
<rect width="512" height="512" rx="112" fill="#323232"/>
<path d="M237.636 302.636V301.545C237.758 289.97 238.97 280.758 241.273 273.909C243.576 267.061 246.848 261.515 251.091 257.273C255.333 253.03 260.424 249.121 266.364 245.545C269.939 243.364 273.152 240.788 276 237.818C278.848 234.788 281.091 231.303 282.727 227.364C284.424 223.424 285.273 219.061 285.273 214.273C285.273 208.333 283.879 203.182 281.091 198.818C278.303 194.455 274.576 191.091 269.909 188.727C265.242 186.364 260.061 185.182 254.364 185.182C249.394 185.182 244.606 186.212 240 188.273C235.394 190.333 231.545 193.576 228.455 198C225.364 202.424 223.576 208.212 223.091 215.364H200.182C200.667 205.061 203.333 196.242 208.182 188.909C213.091 181.576 219.545 175.97 227.545 172.091C235.606 168.212 244.545 166.273 254.364 166.273C265.03 166.273 274.303 168.394 282.182 172.636C290.121 176.879 296.242 182.697 300.545 190.091C304.909 197.485 307.091 205.909 307.091 215.364C307.091 222.03 306.061 228.061 304 233.455C302 238.848 299.091 243.667 295.273 247.909C291.515 252.152 286.97 255.909 281.636 259.182C276.303 262.515 272.03 266.03 268.818 269.727C265.606 273.364 263.273 277.697 261.818 282.727C260.364 287.758 259.576 294.03 259.455 301.545V302.636H237.636ZM249.273 356.455C244.788 356.455 240.939 354.848 237.727 351.636C234.515 348.424 232.909 344.576 232.909 340.091C232.909 335.606 234.515 331.758 237.727 328.545C240.939 325.333 244.788 323.727 249.273 323.727C253.758 323.727 257.606 325.333 260.818 328.545C264.03 331.758 265.636 335.606 265.636 340.091C265.636 343.061 264.879 345.788 263.364 348.273C261.909 350.758 259.939 352.758 257.455 354.273C255.03 355.727 252.303 356.455 249.273 356.455Z" fill="#B4B4B4" fill-opacity="0.75"/>
</svg>
