<svg width="512" height="512" viewBox="0 0 512 512" fill="none" xmlns="http://www.w3.org/2000/svg">
<rect width="512" height="512" rx="112" fill="#FFF38A"/>
<path d="M243.909 373.364V299.545H242.091C240.515 302.091 238.273 305.303 235.364 309.182C232.455 313 228.303 316.424 222.909 319.455C217.515 322.424 210.333 323.909 201.364 323.909C189.727 323.909 179.455 320.97 170.545 315.091C161.636 309.152 154.667 300.788 149.636 290C144.606 279.152 142.091 266.333 142.091 251.545C142.091 236.879 144.606 224.152 149.636 213.364C154.667 202.576 161.667 194.242 170.636 188.364C179.606 182.485 189.97 179.545 201.727 179.545C210.818 179.545 218 181.061 223.273 184.091C228.606 187.061 232.667 190.455 235.455 194.273C238.303 198.03 240.515 201.121 242.091 203.545H244.636V181.364H265.364V373.364H243.909ZM204.273 304.636C212.879 304.636 220.152 302.394 226.091 297.909C232.03 293.364 236.545 287.091 239.636 279.091C242.727 271.03 244.273 261.727 244.273 251.182C244.273 240.758 242.758 231.636 239.727 223.818C236.697 215.939 232.212 209.818 226.273 205.455C220.333 201.03 213 198.818 204.273 198.818C195.182 198.818 187.606 201.152 181.545 205.818C175.545 210.424 171.03 216.697 168 224.636C165.03 232.515 163.545 241.364 163.545 251.182C163.545 261.121 165.061 270.152 168.091 278.273C171.182 286.333 175.727 292.758 181.727 297.545C187.788 302.273 195.303 304.636 204.273 304.636ZM304.636 321V181.364H325.364V202.455H326.818C329.364 195.545 333.97 189.939 340.636 185.636C347.303 181.333 354.818 179.182 363.182 179.182C364.758 179.182 366.727 179.212 369.091 179.273C371.455 179.333 373.242 179.424 374.455 179.545V201.364C373.727 201.182 372.061 200.909 369.455 200.545C366.909 200.121 364.212 199.909 361.364 199.909C354.576 199.909 348.515 201.333 343.182 204.182C337.909 206.97 333.727 210.848 330.636 215.818C327.606 220.727 326.091 226.333 326.091 232.636V321H304.636Z" fill="#252204" fill-opacity="0.24"/>
</svg>
